<?xml version="1.0" encoding="UTF-8"?>
<svg version="1.1" xmlns="http://www.w3.org/2000/svg" width="1030" height="526">
<path d="M0 0 C339.9 0 679.8 0 1030 0 C1030 173.58 1030 347.16 1030 526 C690.1 526 350.2 526 0 526 C0 352.42 0 178.84 0 0 Z " fill="#173D73" transform="translate(0,0)"/>
<path d="M0 0 C45.4 0 45.4 0 54 7 C59.40974666 12.59057385 61.28912454 16.56759508 61.3125 24.375 C61.32925781 25.66148437 61.34601562 26.94796875 61.36328125 28.2734375 C60.71922601 34.88019773 57.45122899 39.23082609 53 44 C48.7 47 48.7 47 46 47 C50.59096044 54.39567689 55.41800723 61.58440155 60.44262695 68.69140625 C64 73.78349082 64 73.78349082 64 76 C51.0423037 77.41071694 51.0423037 77.41071694 45 76 C40.93246961 72.68614214 39.22271617 68.67773521 37 64 C35.57203881 61.73513612 34.03812178 59.56928081 32.5 57.375 C29 52.24615385 29 52.24615385 29 50 C25.04 50 21.08 50 17 50 C17 58.58 17 67.16 17 76 C11.39 76 5.78 76 0 76 C0 50.92 0 25.84 0 0 Z " fill="#F8F9FB" transform="translate(875,202)"/>
<path d="M0 0 C6.950625 -0.061875 13.90125 -0.12375 21.0625 -0.1875 C24.33426147 -0.22846802 24.33426147 -0.22846802 27.67211914 -0.27026367 C29.41812589 -0.27903281 31.16413882 -0.28667574 32.91015625 -0.29296875 C34.2491095 -0.3159906 34.2491095 -0.3159906 35.6151123 -0.33947754 C44.25681977 -0.34306977 49.90611787 2.20917941 56.265625 8.125 C61.02244795 13.26751129 61.4430559 18.67210103 61.21484375 25.36328125 C60.61819573 32.68577966 57.88749513 37.66818713 53 43 C48.875 46 48.875 46 46 46 C48.89153471 51.42162758 52.31908859 56.26257346 55.9609375 61.20703125 C57.85247444 63.79792955 59.697049 66.40934225 61.5 69.0625 C61.9846875 69.77535156 62.469375 70.48820312 62.96875 71.22265625 C64 73 64 73 64 75 C51.0423037 76.41071694 51.0423037 76.41071694 45 75 C40.93246961 71.68614214 39.22271617 67.67773521 37 63 C35.57203881 60.73513612 34.03812178 58.56928081 32.5 56.375 C29 51.24615385 29 51.24615385 29 49 C25.04 49 21.08 49 17 49 C17 57.58 17 66.16 17 75 C11.39 75 5.78 75 0 75 C0 50.25 0 25.5 0 0 Z " fill="#FAFBFC" transform="translate(205,203)"/>
<path d="M0 0 C5.94 0 11.88 0 18 0 C18.86625 2.371875 19.7325 4.74375 20.625 7.1875 C22.98900967 13.56961034 25.65958346 19.72578729 28.57421875 25.87890625 C30.44271365 29.96911837 32.00815368 34.1463487 33.5859375 38.35546875 C35.29453227 42.75911217 37.14423986 47.09433236 39 51.4375 C42.31057861 59.20438773 45.252988 67.01649639 48 75 C41.73 75 35.46 75 29 75 C24 62.375 24 62.375 24 59 C13.77 59 3.54 59 -7 59 C-7.99 62.3 -8.98 65.6 -10 69 C-10.66 70.98 -11.32 72.96 -12 75 C-17.94 75 -23.88 75 -30 75 C-28.2372901 69.5355993 -26.33296856 64.18820057 -24.16796875 58.87109375 C-23.02308158 56.05673901 -21.90184435 53.23351328 -20.7824707 50.40893555 C-18.93572845 45.756067 -17.09183339 41.11223763 -15 36.5625 C-12.85081955 31.83608655 -11.09137811 26.96683667 -9.29003906 22.10083008 C-6.50207842 14.59824779 -3.58140132 7.16280265 0 0 Z " fill="#FAFBFC" transform="translate(375,203)"/>
<path d="M0 0 C5.61 0 11.22 0 17 0 C17 25.08 17 50.16 17 76 C11.39 76 5.78 76 0 76 C0 65.44 0 54.88 0 44 C-10.89 44 -21.78 44 -33 44 C-33 54.56 -33 65.12 -33 76 C-38.28 76 -43.56 76 -49 76 C-49 51.25 -49 26.5 -49 1 C-43.72 1 -38.44 1 -33 1 C-33 10.57 -33 20.14 -33 30 C-22.11 30 -11.22 30 0 30 C0 20.1 0 10.2 0 0 Z " fill="#FAFBFC" transform="translate(179,202)"/>
<path d="M0 0 C18.81 0 37.62 0 57 0 C57 4.95 57 9.9 57 15 C43.47 15 29.94 15 16 15 C16 19.95 16 24.9 16 30 C27.55 30 39.1 30 51 30 C51 34.62 51 39.24 51 44 C39.45 44 27.9 44 16 44 C16 49.61 16 55.22 16 61 C29.53 61 43.06 61 57 61 C57 65.95 57 70.9 57 76 C38.19 76 19.38 76 0 76 C0 50.92 0 25.84 0 0 Z " fill="#F5F7F9" transform="translate(809,202)"/>
<path d="M0 0 C5.61 0 11.22 0 17 0 C17.33 10.56 17.66 21.12 18 32 C24.9065105 24.65728884 31.70266129 17.37167339 38 9.5 C38.66 8.675 39.32 7.85 40 7 C40.69480469 5.91460937 41.38960937 4.82921875 42.10546875 3.7109375 C45.76030167 0.28792259 47.70557733 0.36698532 52.54882812 0.47265625 C53.9168457 0.54806641 53.9168457 0.54806641 55.3125 0.625 C56.70952148 0.66560547 56.70952148 0.66560547 58.13476562 0.70703125 C60.42556872 0.7775175 62.71157563 0.87595754 65 1 C63.20467891 4.87949716 60.89932945 7.26961294 57.8125 10.25 C53.98164546 13.99699442 50.29958108 17.79646151 46.83984375 21.890625 C45.37768589 23.56698433 43.85647439 25.19179671 42.31640625 26.796875 C41.85113525 27.28542969 41.38586426 27.77398437 40.90649414 28.27734375 C39.56002163 29.68715492 38.20213468 31.08603783 36.84375 32.484375 C34.79255993 34.76320939 34.79255993 34.76320939 35 37.10546875 C36.21214027 39.40190638 37.58588833 40.8040998 39.5 42.5625 C42.61257058 45.55430065 45.3812136 48.61659306 48.0625 52 C52.75773405 57.87730882 57.89553283 63.2878537 63.12329102 68.69335938 C63.75420654 69.35271484 64.38512207 70.01207031 65.03515625 70.69140625 C65.6062915 71.28123291 66.17742676 71.87105957 66.76586914 72.47875977 C68 74 68 74 68 76 C51.51669337 78.21859062 51.51669337 78.21859062 45.921875 74.68896484 C42.14758861 71.22617805 39.23388573 67.12162311 36.34912109 62.91064453 C34.47976001 60.2632287 32.33523463 57.92822852 30.125 55.5625 C29.42761719 54.79035156 28.73023438 54.01820313 28.01171875 53.22265625 C26.64095236 51.70815902 25.2684861 50.195199 23.89453125 48.68359375 C23.24871094 47.96300781 22.60289062 47.24242187 21.9375 46.5 C21.36902344 45.8709375 20.80054688 45.241875 20.21484375 44.59375 C19 43 19 43 19 41 C18.34 41 17.68 41 17 41 C17 52.55 17 64.1 17 76 C11.39 76 5.78 76 0 76 C0 50.92 0 25.84 0 0 Z " fill="#F7F9FA" transform="translate(731,202)"/>
<path d="M0 0 C-0.4250112 2.56513849 -0.86446925 5.12636902 -1.3125 7.6875 C-1.43044922 8.40873047 -1.54839844 9.12996094 -1.66992188 9.87304688 C-2.43920328 14.19285785 -3.45435618 17.33784574 -6 21 C-6.44601562 21.71542969 -6.89203125 22.43085938 -7.3515625 23.16796875 C-8.20552735 24.5222627 -9.05969639 25.87642791 -9.9140625 27.23046875 C-13.10055551 32.42284765 -12.7210557 38.0682965 -12 44 C-9.33576372 50.22251158 -4.89035646 55.16884946 1.265625 58.06640625 C7.27736217 60.11898508 13.89210938 60.06532283 19.89453125 58.0078125 C25.40660682 55.0823631 28.79176138 51.61051235 31.21484375 45.84375 C32.94710113 39.56970336 33.51736671 33.25611215 30.71484375 27.2421875 C28.71490333 24.1857675 26.57993984 21.57993984 24 19 C23.37014734 16.53259556 22.83866717 14.12312518 22.375 11.625 C22.2409375 10.95210937 22.106875 10.27921875 21.96875 9.5859375 C21.33521257 6.30188634 21 3.36023372 21 0 C26.33644563 1.46752255 30.47742111 3.91518261 35 7 C36.010625 7.66 37.02125 8.32 38.0625 9 C43.32836134 13.49912878 47.94043319 22.15158034 49 29 C49.8878554 42.05584081 48.64969896 52.62913611 39.90234375 63.00390625 C32.31995001 70.95997032 22.77331463 76.03475777 11.70068359 76.59399414 C0.61612967 76.75016658 -9.02271547 73.91581389 -17.1875 66.07421875 C-26.09039735 55.88577372 -29.84820204 45.35739215 -29.53515625 31.8828125 C-28.03718461 21.01431752 -21.6234816 11.59689354 -13 5 C-4.875 0 -4.875 0 0 0 Z " fill="#F8F9FB" transform="translate(594,203)"/>
<path d="M0 0 C0.721875 0.42023438 1.44375 0.84046875 2.1875 1.2734375 C3.033125 1.75554687 3.87875 2.23765625 4.75 2.734375 C11.01731302 6.59268958 11.01731302 6.59268958 12.1875 11.2734375 C8.8875 13.9134375 5.5875 16.5534375 2.1875 19.2734375 C-2.8125 17.2734375 -2.8125 17.2734375 -5.875 15.7109375 C-11.73636568 12.84260961 -17.89551566 12.16246139 -24.22265625 13.95703125 C-31.00483849 16.68575566 -34.06427369 20.13868687 -37.625 26.5234375 C-39.81154447 33.42831476 -39.73905823 38.984527 -36.625 45.5859375 C-32.93686699 52.14033544 -29.33038794 55.68104888 -22.0703125 57.765625 C-14.97437881 59.36159624 -9.99322855 57.67338132 -3.8125 54.2734375 C-1.38224072 52.69934296 0.88564252 51.03656238 3.1875 49.2734375 C3.74179687 49.83933594 4.29609375 50.40523437 4.8671875 50.98828125 C5.59164062 51.72175781 6.31609375 52.45523438 7.0625 53.2109375 C7.78179688 53.94183594 8.50109375 54.67273438 9.2421875 55.42578125 C11.05777192 57.33011749 11.05777192 57.33011749 13.1875 58.2734375 C12.44412356 62.54096892 10.62567943 64.08874765 7.36328125 66.75 C-2.710758 73.8036361 -12.76940586 75.51597896 -24.8125 74.2734375 C-32.93139414 72.25727559 -39.05112385 68.23673104 -44.8125 62.2734375 C-45.699375 61.4071875 -46.58625 60.5409375 -47.5 59.6484375 C-54.5366107 50.52956445 -56.12533218 39.40886158 -55.09472656 28.26123047 C-53.777983 18.98707296 -48.75104233 11.36728772 -41.8125 5.2734375 C-29.94715681 -3.25420483 -13.67824732 -6.69664192 0 0 Z " fill="#F9FAFB" transform="translate(707.8125,204.7265625)"/>
<path d="M0 0 C20.13 0 40.26 0 61 0 C61 4.62 61 9.24 61 14 C53.74 14 46.48 14 39 14 C39 34.13 39 54.26 39 75 C33.39 75 27.78 75 22 75 C22 54.87 22 34.74 22 14 C14.74 14 7.48 14 0 14 C0 9.38 0 4.76 0 0 Z " fill="#FAFBFC" transform="translate(432,203)"/>
<path d="M0 0 C16.83 0 33.66 0 51 0 C51 4.62 51 9.24 51 14 C40.11 14 29.22 14 18 14 C18 19.61 18 25.22 18 31 C31.2 31 44.4 31 58 31 C58 35.95 58 40.9 58 46 C38.86 46 19.72 46 0 46 C0 30.82 0 15.64 0 0 Z " fill="#F0F3F6" transform="translate(278,232)"/>
<path d="M0 0 C5.61 0 11.22 0 17 0 C17 20.13 17 40.26 17 61 C29.21 61 41.42 61 54 61 C54 65.95 54 70.9 54 76 C36.18 76 18.36 76 0 76 C0 50.92 0 25.84 0 0 Z " fill="#F8F9FA" transform="translate(502,202)"/>
<path d="M0 0 C19.8 0 39.6 0 60 0 C60 4.62 60 9.24 60 14 C52.74 14 45.48 14 38 14 C38 34.13 38 54.26 38 75 C32.72 75 27.44 75 22 75 C22 54.87 22 34.74 22 14 C14.74 14 7.48 14 0 14 C0 9.38 0 4.76 0 0 Z " fill="#FEFEFE" transform="translate(60,203)"/>
<path d="M0 0 C1.97909398 -0.02686553 3.95828971 -0.04633375 5.9375 -0.0625 C7.03964844 -0.07410156 8.14179687 -0.08570313 9.27734375 -0.09765625 C12 0 12 0 13 1 C13.49004995 3.21610008 13.92613783 5.4441684 14.33984375 7.67578125 C14.46686172 8.35617966 14.5938797 9.03657806 14.7247467 9.7375946 C14.99467437 11.18743595 15.2627183 12.63762905 15.52905273 14.08813477 C15.92893742 16.26586898 16.33400626 18.4425818 16.74023438 20.61914062 C18.24713358 28.73442254 19.64270852 36.85625113 21 45 C11.43 45 1.86 45 -8 45 C-8 39.81495658 -7.99142038 37.6510805 -6.5625 33.17578125 C-5.83094034 30.34606786 -5.49607128 27.5239944 -5.125 24.625 C-4.0087354 16.27101977 -2.0377338 8.17071901 0 0 Z " fill="#F1F3F6" transform="translate(598,201)"/>
<path d="M0 0 C18.48 0 36.96 0 56 0 C56 4.62 56 9.24 56 14 C37.52 14 19.04 14 0 14 C0 9.38 0 4.76 0 0 Z " fill="#FDFEFE" transform="translate(279,203)"/>
<path d="M0 0 C3.361875 -0.0825 6.72375 -0.165 10.1875 -0.25 C11.23832764 -0.28641602 12.28915527 -0.32283203 13.37182617 -0.36035156 C17.68595494 -0.41164622 20.2833731 -0.4294256 24.05078125 1.828125 C26.55946621 4.62337317 27.9029837 6.45024097 28.5625 10.1875 C27.90080963 14.6722903 27.01531087 17.12603184 23.953125 20.46484375 C16.92800926 24.11678884 7.52579553 22.37395257 0 22 C0 14.74 0 7.48 0 0 Z " fill="#1F497D" transform="translate(222,217)"/>
<path d="M0 0 C3.17625 -0.0825 6.3525 -0.165 9.625 -0.25 C10.6145166 -0.28641602 11.6040332 -0.32283203 12.62353516 -0.36035156 C18.43058264 -0.43313041 21.55791115 0.1904646 26 4 C28.26976346 6.7631903 27.9957169 8.26983516 27.9375 11.9375 C27.28014922 16.2343295 25.39286462 18.26915775 22 21 C19.59940183 22.20029908 18.10639351 22.11459743 15.4296875 22.09765625 C14.62257324 22.09515869 13.81545898 22.09266113 12.98388672 22.09008789 C11.9579541 22.08098389 10.93202148 22.07187988 9.875 22.0625 C4.986875 22.0315625 4.986875 22.0315625 0 22 C0 14.74 0 7.48 0 0 Z " fill="#15366B" transform="translate(892,217)"/>
<path d="M0 0 C3.43177746 2.0085448 6.2103492 4.4206984 8 8 C8.54575341 14.43989028 7.71179508 17.6974356 4 23 C-0.45193722 25.96795815 -4.77809146 25.63458039 -10 25 C-13.45658479 22.95426614 -14.7785359 21.33219615 -17 18 C-17.68090463 12.88529775 -17.84702203 8.43117515 -15.1875 3.9375 C-10.29114904 -0.399268 -6.37506275 -1.13805961 0 0 Z " fill="#22487B" transform="translate(422,302)"/>
<path d="M0 0 C4.09964471 2.08709185 6.28541564 3.76396805 8 8 C8.74148241 12.74203866 8.43787689 16.16954383 6.1875 20.4375 C3.79141179 23.24434619 2.19868423 24.84042284 -1.5234375 25.3359375 C-9.22742475 25.44147157 -9.22742475 25.44147157 -13.0625 23.25 C-16.88680466 18.80887201 -17.4924731 15.17306099 -17.390625 9.41015625 C-16.79060896 5.70805726 -14.93085931 4.1811046 -12 2 C-7.95685624 -0.69542917 -4.74891289 -0.66452365 0 0 Z " fill="#224C7F" transform="translate(184,302)"/>
<path d="M0 0 C3.8026029 2.0050088 5.61790841 3.42686262 8 7 C8.73981114 11.99802641 8.51803233 15.96393533 6.25 20.5 C3.5446164 23.50598178 1.61367935 24.77434728 -2.40234375 25.3359375 C-6.6046892 25.40068859 -9.27508514 25.40776461 -13 23.3125 C-16.92531291 18.77385695 -17.42386599 14.93412392 -17 9 C-16.16640305 5.41553311 -15.19364684 4.17475447 -12.4375 1.6875 C-8.09660526 -0.44348469 -4.750934 -0.85839773 0 0 Z " fill="#1D4074" transform="translate(672,302)"/>
<path d="M0 0 C3.33264513 1.65092217 6.29587364 3.59174729 8 7 C8.50260166 12.11664964 8.84102072 16.52821374 6.25 21.0625 C1.80887201 24.88680466 -1.82693901 25.4924731 -7.58984375 25.390625 C-11.29194274 24.79060896 -12.8188954 22.93085931 -15 20 C-17.68761942 15.96857086 -17.92537664 12.73667363 -17 8 C-12.772007 0.99657601 -8.0495475 -1.20808869 0 0 Z " fill="#1F4477" transform="translate(556,302)"/>
<path d="M0 0 C12.67567568 0 12.67567568 0 17 4 C19.820962 7.3851544 20.64375379 10.49606955 20.4921875 14.93359375 C19.57633142 18.77873555 16.97417091 21.50343318 14 24 C11 25 11 25 0 25 C0 16.75 0 8.5 0 0 Z " fill="#D2DCE5" transform="translate(360,302)"/>
<path d="M0 0 C2.93038162 1.2469709 4.41759241 2.22345655 6.3125 4.75 C7.5448054 8.78299951 7.92801108 12.12205633 6.0078125 16.0078125 C3.86321621 19.00055421 2.17886717 20.70481316 -1.44921875 21.61328125 C-6.09773084 21.85647695 -8.31850464 21.52850661 -12.0625 18.625 C-15.10803998 14.49878454 -15.43068946 12.16827351 -15 7 C-11.0392682 -0.12931724 -7.74375931 -0.75026042 0 0 Z " fill="#1E3E71" transform="translate(963,203)"/>
<path d="M0 0 C2.51291483 2.23139046 3.66874837 4.16618388 4.82421875 7.30859375 C5.13037109 8.13810547 5.43652344 8.96761719 5.75195312 9.82226562 C6.21504883 11.11680664 6.21504883 11.11680664 6.6875 12.4375 C7.16799805 13.72624023 7.16799805 13.72624023 7.65820312 15.04101562 C9.09916293 19.00135078 10 21.71615822 10 26 C3.4 26 -3.2 26 -10 26 C-8.67867227 21.37535295 -7.42151363 17.35507243 -5.5625 13 C-4.90894531 11.46085938 -4.90894531 11.46085938 -4.2421875 9.890625 C-3.83226562 8.93671875 -3.42234375 7.9828125 -3 7 C-2.67257812 6.23171875 -2.34515625 5.4634375 -2.0078125 4.671875 C-1.34240803 3.11292738 -0.67196557 1.5561308 0 0 Z " fill="#274D7F" transform="translate(383,223)"/>
<path d="M0 0 C5 1 5 1 6.80078125 3.43359375 C7.29964844 4.42488281 7.79851563 5.41617187 8.3125 6.4375 C8.82425781 7.42621094 9.33601562 8.41492188 9.86328125 9.43359375 C11 12 11 12 11 14 C11.66 14 12.32 14 13 14 C13.3403125 13.0409375 13.3403125 13.0409375 13.6875 12.0625 C15.48565826 7.86679739 17.73904021 3.96099444 20 0 C21.32 0 22.64 0 24 0 C24 8.25 24 16.5 24 25 C23.01 25 22.02 25 21 25 C21 19.39 21 13.78 21 8 C20.34 8 19.68 8 19 8 C18.731875 8.886875 18.46375 9.77375 18.1875 10.6875 C17.08289181 13.76877548 15.77150856 16.26221405 14 19 C12.171875 18.78515625 12.171875 18.78515625 10 18 C7.96109043 15.16162325 6.58693362 12.12978576 5 9 C4.67 14.28 4.34 19.56 4 25 C2.68 25 1.36 25 0 25 C0 16.75 0 8.5 0 0 Z " fill="#D3DAE4" transform="translate(868,302)"/>
<path d="M0 0 C10 0 10 0 13.125 1.5625 C15 4 15 4 15.6875 7.5 C15 11 15 11 12 13.4375 C10.515 14.2109375 10.515 14.2109375 9 15 C9.5053125 15.55429687 10.010625 16.10859375 10.53125 16.6796875 C11.1809375 17.40414063 11.830625 18.12859375 12.5 18.875 C13.1496875 19.59429687 13.799375 20.31359375 14.46875 21.0546875 C16 23 16 23 16 25 C13.875 25 13.875 25 11 24 C8.74515308 21.50224217 6.85734917 18.80198037 5 16 C4.67 18.97 4.34 21.94 4 25 C2.68 25 1.36 25 0 25 C0 16.75 0 8.5 0 0 Z " fill="#C5CEDB" transform="translate(847,302)"/>
<path d="M0 0 C10 0 10 0 13.125 1.625 C15 4 15 4 15.6875 6.9375 C14.69944283 11.33884557 12.62904902 12.42942361 9 15 C9.5053125 15.55429687 10.010625 16.10859375 10.53125 16.6796875 C11.1809375 17.40414063 11.830625 18.12859375 12.5 18.875 C13.1496875 19.59429687 13.799375 20.31359375 14.46875 21.0546875 C16 23 16 23 16 25 C13.087425 24.91433603 11.43201976 24.42089045 9.33203125 22.375 C7.83908228 20.61608625 6.39563738 18.83686981 5 17 C4.67 19.64 4.34 22.28 4 25 C2.68 25 1.36 25 0 25 C0 16.75 0 8.5 0 0 Z " fill="#CFDAE4" transform="translate(226,302)"/>
<path d="M0 0 C10 0 10 0 14 3 C14.7202381 8.04166667 14.7202381 8.04166667 14 11 C11.5 13.5 11.5 13.5 9 15 C9.5053125 15.63808594 10.010625 16.27617187 10.53125 16.93359375 C11.1809375 17.75988281 11.830625 18.58617187 12.5 19.4375 C13.1496875 20.26121094 13.799375 21.08492188 14.46875 21.93359375 C16 24 16 24 16 25 C13.70703125 25.2421875 13.70703125 25.2421875 11 25 C9.19921875 23.3203125 9.19921875 23.3203125 7.6875 21.125 C7.17574219 20.40570313 6.66398438 19.68640625 6.13671875 18.9453125 C5 17 5 17 5 15 C4.34 15 3.68 15 3 15 C3 18.3 3 21.6 3 25 C2.01 25 1.02 25 0 25 C0 16.75 0 8.5 0 0 Z " fill="#F0F3F6" transform="translate(520,302)"/>
<path d="M0 0 C9 0 9 0 12.0625 1.625 C14 4 14 4 14.4375 7.0625 C14 10 14 10 12 13 C9.875 14.1875 9.875 14.1875 8 15 C8.5053125 15.55429687 9.010625 16.10859375 9.53125 16.6796875 C10.1809375 17.40414063 10.830625 18.12859375 11.5 18.875 C12.1496875 19.59429687 12.799375 20.31359375 13.46875 21.0546875 C15 23 15 23 15 25 C11 25 11 25 9.296875 23.3203125 C8.53117188 22.23363281 8.53117188 22.23363281 7.75 21.125 C7.22921875 20.40570313 6.7084375 19.68640625 6.171875 18.9453125 C5 17 5 17 5 15 C4.34 15 3.68 15 3 15 C3 18.3 3 21.6 3 25 C2.01 25 1.02 25 0 25 C0 16.75 0 8.5 0 0 Z " fill="#EDF1F5" transform="translate(148,302)"/>
<path d="M0 0 C4.09964471 2.08709185 6.28541564 3.76396805 8 8 C8.74148241 12.74203866 8.43787689 16.16954383 6.1875 20.4375 C3.79141179 23.24434619 2.19868423 24.84042284 -1.5234375 25.3359375 C-9.22742475 25.44147157 -9.22742475 25.44147157 -13.0625 23.25 C-16.88680466 18.80887201 -17.4924731 15.17306099 -17.390625 9.41015625 C-16.79060896 5.70805726 -14.93085931 4.1811046 -12 2 C-7.95685624 -0.69542917 -4.74891289 -0.66452365 0 0 Z M-11 5 C-13.68088358 9.02132537 -13.80264522 12.2751503 -13 17 C-10.58929772 20.47424741 -9.22651122 21.76513615 -5.0625 22.5625 C-0.91747284 21.80116848 1.02205868 21.04884468 4 18 C4.87074915 14.17450871 4.87638638 10.82475909 4 7 C1.13361102 4.13361102 -0.64097074 3.19414704 -4.625 2.625 C-7.17819909 3.0281367 -8.83920621 3.58430752 -11 5 Z " fill="#E7ECF1" transform="translate(184,302)"/>
<path d="M0 0 C5 1 5 1 7.203125 3.8359375 C7.9019354 5.00591551 8.58382632 6.1861362 9.25 7.375 C9.600625 7.96539062 9.95125 8.55578125 10.3125 9.1640625 C11.82410303 11.74541537 13.05176749 14.15530248 14 17 C14.33 11.39 14.66 5.78 15 0 C15.99 0 16.98 0 18 0 C18 8.25 18 16.5 18 25 C16.68 25 15.36 25 14 25 C13.68546875 24.43152344 13.3709375 23.86304688 13.046875 23.27734375 C10.39810241 18.49838357 7.72171247 13.73779578 5 9 C4.67 14.28 4.34 19.56 4 25 C2.68 25 1.36 25 0 25 C0 16.75 0 8.5 0 0 Z " fill="#E2E8EE" transform="translate(335,302)"/>
<path d="M0 0 C1.32 0 2.64 0 4 0 C5.34117853 3.60129621 6.6715839 7.20647859 8 10.8125 C8.3815625 11.83666016 8.763125 12.86082031 9.15625 13.91601562 C9.5171875 14.89892578 9.878125 15.88183594 10.25 16.89453125 C10.75273438 18.25348511 10.75273438 18.25348511 11.265625 19.63989258 C12 22 12 22 12 25 C10.68 25 9.36 25 8 25 C7.67 23.68 7.34 22.36 7 21 C3.7 21 0.4 21 -3 21 C-3.33 22.32 -3.66 23.64 -4 25 C-5.32 25 -6.64 25 -8 25 C-6.07813928 16.32818942 -3.35448294 8.22047203 0 0 Z " fill="#D6DDE6" transform="translate(766,302)"/>
<path d="M0 0 C5 1 5 1 6.94921875 3.58203125 C7.52285156 4.64808594 8.09648438 5.71414063 8.6875 6.8125 C9.55955078 8.39998047 9.55955078 8.39998047 10.44921875 10.01953125 C11.65417895 12.33536155 12.83252417 14.66504834 14 17 C14.33 11.39 14.66 5.78 15 0 C15.99 0 16.98 0 18 0 C18 8.25 18 16.5 18 25 C16.68 25 15.36 25 14 25 C11.03 19.72 8.06 14.44 5 9 C4.67 14.28 4.34 19.56 4 25 C2.68 25 1.36 25 0 25 C0 16.75 0 8.5 0 0 Z " fill="#E3E8EE" transform="translate(686,302)"/>
<path d="M0 0 C3.33264513 1.65092217 6.29587364 3.59174729 8 7 C8.50260166 12.11664964 8.84102072 16.52821374 6.25 21.0625 C1.80887201 24.88680466 -1.82693901 25.4924731 -7.58984375 25.390625 C-11.29194274 24.79060896 -12.8188954 22.93085931 -15 20 C-17.68761942 15.96857086 -17.92537664 12.73667363 -17 8 C-12.772007 0.99657601 -8.0495475 -1.20808869 0 0 Z M-10.875 5 C-13.09766847 8.13788489 -13.75141712 10.13691023 -13.48046875 13.99609375 C-12.56255124 17.82448141 -11.01704172 19.43230492 -8 22 C-4.5 22.91666667 -4.5 22.91666667 -1 22 C2.6086524 19.01893932 4.75217316 16.85870127 5.375 12.1875 C4.87761245 7.95970586 3.20618923 6.67182436 0 4 C-4.15208668 1.92395666 -7.12705085 2.39273102 -10.875 5 Z " fill="#E6EBF0" transform="translate(556,302)"/>
<path d="M0 0 C3.8026029 2.0050088 5.61790841 3.42686262 8 7 C8.59022577 11.52250916 8.52729459 15.69563971 6.8125 19.9375 C3.3389142 23.89020108 0.3303544 25.22936562 -4.875 25.6875 C-9.11365601 25.54790354 -11.15707958 24.59074401 -14.125 21.5625 C-16.89933061 17.83263984 -17.99915905 14.83088379 -17.63671875 10.18359375 C-16.50194885 6.29195955 -14.0137891 3.62340191 -11 1 C-7.53081128 -0.73459436 -3.79303468 -0.47173877 0 0 Z M-11 6 C-13.4915904 9.7373856 -13.45793285 11.57331583 -13 16 C-11.20437595 18.75329021 -9.94745078 20.52627461 -7 22 C-3.12785818 22.43023798 -1.47503629 22.31669086 1.8125 20.125 C4.59649199 17.42055063 4.93464155 16.57733296 5.375 12.6875 C5.30690315 8.90399182 5.30690315 8.90399182 2.875 6.125 C-2.2629525 2.32738293 -5.90877927 2.04016166 -11 6 Z " fill="#E7EBF0" transform="translate(833,302)"/>
<path d="M0 0 C4 1 4 1 5.28027344 2.49047852 C5.63637695 3.11365967 5.99248047 3.73684082 6.359375 4.37890625 C6.75253906 5.05244141 7.14570313 5.72597656 7.55078125 6.41992188 C8.14439453 7.48049805 8.14439453 7.48049805 8.75 8.5625 C9.16121094 9.27341797 9.57242187 9.98433594 9.99609375 10.71679688 C11.00878358 12.47134088 12.00590921 14.23485161 13 16 C13.33 10.72 13.66 5.44 14 0 C15.32 0 16.64 0 18 0 C18 8.25 18 16.5 18 25 C13 24 13 24 11.60620117 22.50952148 C11.25533447 21.88634033 10.90446777 21.26315918 10.54296875 20.62109375 C10.15302734 19.94755859 9.76308594 19.27402344 9.36132812 18.58007812 C8.97396484 17.87302734 8.58660156 17.16597656 8.1875 16.4375 C7.78080078 15.72658203 7.37410156 15.01566406 6.95507812 14.28320312 C5.9552214 12.5305131 4.97561043 10.76630124 4 9 C3.67 14.28 3.34 19.56 3 25 C2.01 25 1.02 25 0 25 C0 16.75 0 8.5 0 0 Z " fill="#DFE6EC" transform="translate(447,302)"/>
<path d="M0 0 C3.43177746 2.0085448 6.2103492 4.4206984 8 8 C8.54575341 14.43989028 7.71179508 17.6974356 4 23 C-0.45193722 25.96795815 -4.77809146 25.63458039 -10 25 C-13.45658479 22.95426614 -14.7785359 21.33219615 -17 18 C-17.68090463 12.88529775 -17.84702203 8.43117515 -15.1875 3.9375 C-10.29114904 -0.399268 -6.37506275 -1.13805961 0 0 Z M-13 8 C-14.42662219 10.85324437 -14.31033868 12.83454549 -14 16 C-12.20006226 18.69990662 -10.916227 20.5418865 -8 22 C-3.37379467 22.41121825 -0.70096856 21.85503289 3 19 C4.23266003 15.30201992 4.58136839 11.84478297 4 8 C1.42749516 4.65574371 -0.62748893 3.18300148 -4.8125 2.625 C-9.04029414 3.12238755 -10.32817564 4.79381077 -13 8 Z " fill="#E9EEF2" transform="translate(422,302)"/>
<path d="M0 0 C3.8026029 2.0050088 5.61790841 3.42686262 8 7 C8.73981114 11.99802641 8.51803233 15.96393533 6.25 20.5 C3.5446164 23.50598178 1.61367935 24.77434728 -2.40234375 25.3359375 C-6.6046892 25.40068859 -9.27508514 25.40776461 -13 23.3125 C-16.92531291 18.77385695 -17.42386599 14.93412392 -17 9 C-16.16640305 5.41553311 -15.19364684 4.17475447 -12.4375 1.6875 C-8.09660526 -0.44348469 -4.750934 -0.85839773 0 0 Z M-10.875 4.9375 C-13.36004541 8.51888897 -13.74127589 10.5652983 -13.484375 14.83984375 C-12.6726873 18.45970907 -11.0140178 19.96881409 -8 22 C-4.37503209 22.60416132 -2.56084994 22.26767838 0.75 20.6875 C3.22072445 19.02946845 3.22072445 19.02946845 5 16 C5.58369443 12.58461856 5.58369443 12.58461856 5 9 C2.01893932 5.3913476 -0.14129873 3.24782684 -4.8125 2.625 C-8.13027612 2.76857475 -8.13027612 2.76857475 -10.875 4.9375 Z " fill="#E6EBF0" transform="translate(672,302)"/>
<path d="M0 0 C10 0 10 0 13.125 1.5625 C15 4 15 4 15.625 7.5 C15 11 15 11 12.9375 13.4375 C9.38933056 15.32482417 6.96359827 15.31087045 3 15 C3 18.3 3 21.6 3 25 C2.01 25 1.02 25 0 25 C0 16.75 0 8.5 0 0 Z " fill="#DBE2EA" transform="translate(500,302)"/>
<path d="M0 0 C10.90322581 0 10.90322581 0 14 3 C15.125 6.375 15.125 6.375 15 10 C13 12.9375 13 12.9375 10 15 C6.1875 15.3125 6.1875 15.3125 3 15 C3 18.3 3 21.6 3 25 C2.01 25 1.02 25 0 25 C0 16.75 0 8.5 0 0 Z " fill="#E4E9EF" transform="translate(386,302)"/>
<path d="M0 0 C9 0 9 0 12.0625 0.9375 C14.33115631 3.35252123 14.42003242 4.26781893 14.625 7.5 C14.42800582 10.86531731 14.36511101 11.64562754 11.875 14.0625 C8.74312859 15.08376242 6.27360453 15.22839101 3 15 C3 18.3 3 21.6 3 25 C2.01 25 1.02 25 0 25 C0 16.75 0 8.5 0 0 Z " fill="#E3E8EE" transform="translate(722,302)"/>
<path d="M0 0 C1.32 0 2.64 0 4 0 C4.01981934 0.56509277 4.03963867 1.13018555 4.06005859 1.71240234 C4.15518236 4.26707997 4.26491058 6.82092541 4.375 9.375 C4.4059375 10.26445312 4.436875 11.15390625 4.46875 12.0703125 C4.50742188 12.92109375 4.54609375 13.771875 4.5859375 14.6484375 C4.6173584 15.43395996 4.6487793 16.21948242 4.68115234 17.02880859 C4.8399465 19.23002939 4.8399465 19.23002939 7 21 C9.58354218 21.16687448 9.58354218 21.16687448 12 21 C13.14654482 18.70691037 13.19729117 17.20090344 13.31640625 14.6484375 C13.35830078 13.79765625 13.40019531 12.946875 13.44335938 12.0703125 C13.48267578 11.18085938 13.52199219 10.29140625 13.5625 9.375 C13.60568359 8.4778125 13.64886719 7.580625 13.69335938 6.65625 C13.79956861 4.43765717 13.90161194 2.2189512 14 0 C15.32 0 16.64 0 18 0 C18.14584064 3.22868746 18.23424106 6.45652365 18.3125 9.6875 C18.35439453 10.59951172 18.39628906 11.51152344 18.43945312 12.45117188 C18.52297834 17.04505882 18.51758768 19.28153039 15.765625 23.1015625 C13.00719282 24.99506255 11.73086998 25.7046828 8.4375 25.6875 C7.69371094 25.71199219 6.94992188 25.73648437 6.18359375 25.76171875 C2.53140019 24.48769774 1.66086344 22.41503382 0 19 C-0.45573236 15.68677946 -0.38063058 12.46110399 -0.25 9.125 C-0.23195312 8.24585938 -0.21390625 7.36671875 -0.1953125 6.4609375 C-0.14848379 4.3068168 -0.07674994 2.15326226 0 0 Z " fill="#DBE3EB" transform="translate(246,302)"/>
<path d="M0 0 C4.29 0 8.58 0 13 0 C13 1.32 13 2.64 13 4 C10.03 4 7.06 4 4 4 C4 6.31 4 8.62 4 11 C6.97 11 9.94 11 13 11 C13 11.99 13 12.98 13 14 C10.03 14 7.06 14 4 14 C4 16.64 4 19.28 4 22 C6.97 22 9.94 22 13 22 C13 22.99 13 23.98 13 25 C8.71 25 4.42 25 0 25 C0 16.75 0 8.5 0 0 Z " fill="#E0E5EC" transform="translate(587,302)"/>
<path d="M0 0 C4.29 0 8.58 0 13 0 C13 1.32 13 2.64 13 4 C10.03 4 7.06 4 4 4 C4 6.31 4 8.62 4 11 C6.97 11 9.94 11 13 11 C13 11.99 13 12.98 13 14 C10.03 14 7.06 14 4 14 C4 16.64 4 19.28 4 22 C6.97 22 9.94 22 13 22 C13 22.99 13 23.98 13 25 C8.71 25 4.42 25 0 25 C0 16.75 0 8.5 0 0 Z " fill="#E5EBF0" transform="translate(316,302)"/>
<path d="M0 0 C7 0 7 0 9.9375 1.4375 C12.54164018 4.67294689 12.78646949 6.72391406 12.55078125 10.8046875 C11.92688235 13.29143349 11.24619682 14.33448183 9.375 16.0625 C6 18 6 18 0 18 C0 12.06 0 6.12 0 0 Z " fill="#22497C" transform="translate(364,306)"/>
<path d="M0 0 C5.28 0 10.56 0 16 0 C14.69799397 3.25501507 13.46684052 6.15491274 11.8359375 9.20703125 C11.43632813 9.95791016 11.03671875 10.70878906 10.625 11.48242188 C10.2125 12.25134766 9.8 13.02027344 9.375 13.8125 C8.95476562 14.60076172 8.53453125 15.38902344 8.1015625 16.20117188 C7.0700054 18.13534144 6.03531446 20.06783906 5 22 C8.3 22 11.6 22 15 22 C15 22.99 15 23.98 15 25 C10.05 25 5.1 25 0 25 C0.75016928 21.24915361 1.13603471 19.35485727 2.84765625 16.23046875 C3.38422852 15.23950195 3.38422852 15.23950195 3.93164062 14.22851562 C4.30482422 13.55498047 4.67800781 12.88144531 5.0625 12.1875 C5.43955078 11.49462891 5.81660156 10.80175781 6.20507812 10.08789062 C7.13083852 8.38871015 8.06462312 6.69390575 9 5 C6.03 4.67 3.06 4.34 0 4 C0 2.68 0 1.36 0 0 Z " fill="#DAE2EA" transform="translate(108,302)"/>
<path d="M0 0 C3 0.1875 3 0.1875 5 1.1875 C5.04241723 3.52044775 5.04092937 5.85452567 5 8.1875 C4.67 8.5175 4.34 8.8475 4 9.1875 C3.92755947 11.20714199 3.91622812 13.22917124 3.9375 15.25 C3.94652344 16.35472656 3.95554687 17.45945313 3.96484375 18.59765625 C3.97644531 19.45230469 3.98804688 20.30695313 4 21.1875 C1.36 21.1875 -1.28 21.1875 -4 21.1875 C-3.98839844 20.26066406 -3.97679687 19.33382812 -3.96484375 18.37890625 C-3.95582031 17.18136719 -3.94679688 15.98382813 -3.9375 14.75 C-3.92589844 13.55503906 -3.91429687 12.36007813 -3.90234375 11.12890625 C-3.66098208 8.29876659 -3.66098208 8.29876659 -5 7.1875 C-5.1875 4.75 -5.1875 4.75 -5 2.1875 C-3 0.1875 -3 0.1875 0 0 Z " fill="#1F4477" transform="translate(604,217.8125)"/>
<path d="M0 0 C4.29 0 8.58 0 13 0 C13 1.32 13 2.64 13 4 C9.7 4 6.4 4 3 4 C3 6.31 3 8.62 3 11 C6.3 11 9.6 11 13 11 C13 11.99 13 12.98 13 14 C10.03 14 7.06 14 4 14 C4 17.63 4 21.26 4 25 C2.68 25 1.36 25 0 25 C0 16.75 0 8.5 0 0 Z " fill="#D9E0E8" transform="translate(799,302)"/>
<path d="M0 0 C3.96 0 7.92 0 12 0 C12 0.99 12 1.98 12 3 C9.03 3 6.06 3 3 3 C3 5.64 3 8.28 3 11 C5.97 11 8.94 11 12 11 C12 11.99 12 12.98 12 14 C9.03 14 6.06 14 3 14 C3 16.64 3 19.28 3 22 C5.97 22 8.94 22 12 22 C12 22.99 12 23.98 12 25 C8.04 25 4.08 25 0 25 C0 16.75 0 8.5 0 0 Z " fill="#EFF3F6" transform="translate(129,302)"/>
<path d="M0 0 C5.28 0 10.56 0 16 0 C16 1.32 16 2.64 16 4 C14.02 4 12.04 4 10 4 C10 10.93 10 17.86 10 25 C8.68 25 7.36 25 6 25 C6 18.07 6 11.14 6 4 C4.02 4 2.04 4 0 4 C0 2.68 0 1.36 0 0 Z " fill="#D9E0E8" transform="translate(625,302)"/>
<path d="M0 0 C5.28 0 10.56 0 16 0 C16 1.32 16 2.64 16 4 C14.02 4 12.04 4 10 4 C10 10.93 10 17.86 10 25 C8.68 25 7.36 25 6 25 C6 18.07 6 11.14 6 4 C4.02 4 2.04 4 0 4 C0 2.68 0 1.36 0 0 Z " fill="#D7DFE7" transform="translate(469,302)"/>
<path d="M0 0 C5.28 0 10.56 0 16 0 C16 1.32 16 2.64 16 4 C14.02 4 12.04 4 10 4 C10 10.93 10 17.86 10 25 C8.68 25 7.36 25 6 25 C6 18.07 6 11.14 6 4 C4.02 4 2.04 4 0 4 C0 2.68 0 1.36 0 0 Z " fill="#D4DDE7" transform="translate(285,302)"/>
<path d="M0 0 C0 0.99 0 1.98 0 3 C-2.31 3.33 -4.62 3.66 -7 4 C-6.96219702 6.37233611 -6.96219702 6.37233611 -6 9 C-3.05763218 11.21168225 -3.05763218 11.21168225 0 13 C1.54163175 16.0832635 1.29747535 18.60878099 1 22 C-0.4375 23.9375 -0.4375 23.9375 -3 25 C-6.01821114 25.22857365 -8.98012655 25.17422347 -12 25 C-12 24.01 -12 23.02 -12 22 C-8.04 21.505 -8.04 21.505 -4 21 C-3.67 19.35 -3.34 17.7 -3 16 C-3.84884766 15.45472656 -3.84884766 15.45472656 -4.71484375 14.8984375 C-10.67457627 10.81355932 -10.67457627 10.81355932 -12.25 6.875 C-12 4 -12 4 -10.5625 1.625 C-6.87877417 -0.71102126 -4.31376798 -0.28758453 0 0 Z " fill="#ECF0F4" transform="translate(281,302)"/>
<path d="M0 0 C0 0.99 0 1.98 0 3 C-0.61488281 3.09796875 -1.22976563 3.1959375 -1.86328125 3.296875 C-6.84712972 4.1563784 -6.84712972 4.1563784 -11.0625 6.75 C-12.59550017 10.42920042 -12.53608258 13.51546361 -11.1875 17.25 C-9.95585872 19.30173167 -9.95585872 19.30173167 -7 21 C-4.67612053 21.39387788 -2.34206251 21.73486085 0 22 C0 22.99 0 23.98 0 25 C-7.97875423 25.78223081 -7.97875423 25.78223081 -11.9375 22.75 C-15.62349614 17.83533848 -16.7981479 14.26047258 -16 8 C-12.77773154 0.36831154 -7.51882556 -0.38231316 0 0 Z " fill="#E9EDF2" transform="translate(621,302)"/>
<path d="M0 0 C2.31 0 4.62 0 7 0 C7 0.66 7 1.32 7 2 C5.68 2 4.36 2 3 2 C3 4.97 3 7.94 3 11 C4.32 11 5.64 11 7 11 C8.4375 13.125 8.4375 13.125 10 16 C10.87587362 17.07901298 11.7725208 18.14144232 12.6875 19.1875 C15 22 15 22 15 24 C12.875 24 12.875 24 10 23 C7.74515308 20.50224217 5.85734917 17.80198037 4 15 C3.67 17.97 3.34 20.94 3 24 C2.01 24 1.02 24 0 24 C0 16.08 0 8.16 0 0 Z " fill="#EBEEF3" transform="translate(848,303)"/>
<path d="M0 0 C2.31 0 4.62 0 7 0 C7 0.66 7 1.32 7 2 C5.68 2 4.36 2 3 2 C3 4.97 3 7.94 3 11 C4.65 11 6.3 11 8 11 C8.10183594 11.58523438 8.20367187 12.17046875 8.30859375 12.7734375 C9.11405026 15.36728051 10.22111512 16.6486673 12.0625 18.625 C15 21.79058824 15 21.79058824 15 24 C12.13144287 23.91563067 10.44317685 23.41307819 8.33203125 21.4453125 C4 16.48559976 4 16.48559976 4 14 C3.34 14 2.68 14 2 14 C2 16.97 2 19.94 2 23 C1.34 23 0.68 23 0 23 C0 15.41 0 7.82 0 0 Z " fill="#EDF1F5" transform="translate(227,303)"/>
<path d="M0 0 C1.58246707 -0.08153933 3.16616273 -0.13943557 4.75 -0.1875 C6.07257812 -0.23970703 6.07257812 -0.23970703 7.421875 -0.29296875 C10.52513461 0.05967439 11.82324472 0.7783117 14 3 C14.74628102 5.72173079 14.5848467 8.24778023 14 11 C12.125 13 12.125 13 10 14 C9.34 14 8.68 14 8 14 C8 13.34 8 12.68 8 12 C6.35 12 4.7 12 3 12 C3 9.03 3 6.06 3 3 C4.65 3 6.3 3 8 3 C8 2.34 8 1.68 8 1 C5.36 1 2.72 1 0 1 C0 0.67 0 0.34 0 0 Z " fill="#E6EBF0" transform="translate(520,302)"/>
<path d="M0 0 C4.56020278 -0.35766296 7.94928084 -0.55752445 12.0625 1.625 C14 4 14 4 14.4375 7.0625 C14 10 14 10 12 13 C9.875 13.6875 9.875 13.6875 8 14 C8 13.34 8 12.68 8 12 C6.35 12 4.7 12 3 12 C2.97310784 10.52093108 2.95365379 9.04172517 2.9375 7.5625 C2.92589844 6.73878906 2.91429687 5.91507812 2.90234375 5.06640625 C3 3 3 3 4 2 C2.68 1.34 1.36 0.68 0 0 Z " fill="#E8EDF2" transform="translate(148,302)"/>
<path d="M0 0 C4.95 0 9.9 0 15 0 C15 0.99 15 1.98 15 3 C13.02 3 11.04 3 9 3 C9 10.26 9 17.52 9 25 C8.01 25 7.02 25 6 25 C6 18.07 6 11.14 6 4 C4.02 4 2.04 4 0 4 C0 2.68 0 1.36 0 0 Z " fill="#EFF2F6" transform="translate(206,302)"/>
<path d="M0 0 C2.93038162 1.2469709 4.41759241 2.22345655 6.3125 4.75 C7.5448054 8.78299951 7.92801108 12.12205633 6.0078125 16.0078125 C3.86321621 19.00055421 2.17886717 20.70481316 -1.44921875 21.61328125 C-6.09773084 21.85647695 -8.31850464 21.52850661 -12.0625 18.625 C-15.10803998 14.49878454 -15.43068946 12.16827351 -15 7 C-11.0392682 -0.12931724 -7.74375931 -0.75026042 0 0 Z M-11.5625 3.5 C-13.5745305 6.99918347 -13.74717645 10.11776361 -13 14 C-11.610911 17.04913936 -11.610911 17.04913936 -9 19 C-5.05070721 20.14888518 -2.97041141 20.43129396 0.8125 18.75 C3.93291127 16.25367098 4.92194527 14.60213649 5.4375 10.625 C5.26479196 6.92573994 5.26479196 6.92573994 3.0625 4.0625 C-0.5388681 1.63708883 -2.64911484 1.31312996 -6.90625 1.58984375 C-9.17876319 1.9154982 -9.17876319 1.9154982 -11.5625 3.5 Z " fill="#DCE2E9" transform="translate(963,203)"/>
<path d="M0 0 C4.95 0 9.9 0 15 0 C15 0.99 15 1.98 15 3 C13.02 3 11.04 3 9 3 C9 10.26 9 17.52 9 25 C8.01 25 7.02 25 6 25 C6 17.74 6 10.48 6 3 C4.02 3 2.04 3 0 3 C0 2.01 0 1.02 0 0 Z " fill="#EFF2F5" transform="translate(779,302)"/>
<path d="M0 0 C4.95 0 9.9 0 15 0 C15 0.99 15 1.98 15 3 C13.02 3 11.04 3 9 3 C9 10.26 9 17.52 9 25 C8.01 25 7.02 25 6 25 C6 17.74 6 10.48 6 3 C4.02 3 2.04 3 0 3 C0 2.01 0 1.02 0 0 Z " fill="#EEF1F5" transform="translate(567,302)"/>
<path d="M0 0 C1.32 0 2.64 0 4 0 C4 8.25 4 16.5 4 25 C3.01 25 2.02 25 1 25 C1 19.39 1 13.78 1 8 C0.34 8 -0.32 8 -1 8 C-1.66 9.32 -2.32 10.64 -3 12 C-3.94721072 9.39517051 -4.30222393 7.69325299 -3.17578125 5.109375 C-2.17063275 3.37417127 -1.0893855 1.68359577 0 0 Z " fill="#F0F2F5" transform="translate(888,302)"/>
<path d="M0 0 C1.125 3.75 1.125 3.75 0 6 C2.64 6 5.28 6 8 6 C8 5.01 8 4.02 8 3 C8.66 3 9.32 3 10 3 C10.67408308 4.26691507 11.33900497 5.53870749 12 6.8125 C12.556875 7.87404297 12.556875 7.87404297 13.125 8.95703125 C14 11 14 11 14 14 C12.68 14 11.36 14 10 14 C9.67 12.68 9.34 11.36 9 10 C5.7 10 2.4 10 -1 10 C-1.33 11.32 -1.66 12.64 -2 14 C-3.32 14 -4.64 14 -6 14 C-5.57316761 12.41375765 -5.13303842 10.8310902 -4.6875 9.25 C-4.32205078 7.92742187 -4.32205078 7.92742187 -3.94921875 6.578125 C-2.97874669 3.94227495 -1.78994356 2.14592674 0 0 Z " fill="#E7EBF1" transform="translate(764,313)"/>
<path d="M0 0 C0.99 0 1.98 0 3 0 C3 7.26 3 14.52 3 22 C5.97 22 8.94 22 12 22 C12 22.99 12 23.98 12 25 C8.04 25 4.08 25 0 25 C0 16.75 0 8.5 0 0 Z " fill="#F1F4F7" transform="translate(742,302)"/>
<path d="M0 0 C1.32 0 2.64 0 4 0 C4 8.25 4 16.5 4 25 C2.68 25 1.36 25 0 25 C0 16.75 0 8.5 0 0 Z " fill="#D0D9E3" transform="translate(645,302)"/>
<path d="M0 0 C1.98 0 3.96 0 6 0 C5.01 0.33 4.02 0.66 3 1 C3 7.6 3 14.2 3 21 C6.96 20.505 6.96 20.505 11 20 C10.67 20.99 10.34 21.98 10 23 C6.7 23 3.4 23 0 23 C0 15.41 0 7.82 0 0 Z " fill="#EFF2F6" transform="translate(361,303)"/>
<path d="M0 0 C3.375 -0.125 3.375 -0.125 7 0 C7.66 0.66 8.32 1.32 9 2 C8.625 4.4375 8.625 4.4375 8 7 C8 7.99 8 8.98 8 10 C8 10.66 8 11.32 8 12 C6.68 11.34 5.36 10.68 4 10 C4 9.34 4 8.68 4 8 C3.34 8 2.68 8 2 8 C2 9.65 2 11.3 2 13 C1.34 13 0.68 13 0 13 C0 8.71 0 4.42 0 0 Z " fill="#BFCAD7" transform="translate(955,207)"/>
<path d="M0 0 C0.99 0 1.98 0 3 0 C3 8.25 3 16.5 3 25 C2.01 25 1.02 25 0 25 C0 16.75 0 8.5 0 0 Z " fill="#F5F7F9" transform="translate(436,302)"/>
<path d="M0 0 C2.875 -0.125 2.875 -0.125 6 0 C8 2 8 2 8.25 4.5 C8 7 8 7 6 9 C2.875 9.125 2.875 9.125 0 9 C0 6.03 0 3.06 0 0 Z " fill="#3B5F8B" transform="translate(389,305)"/>
<path d="M0 0 C6.875 0.875 6.875 0.875 8 2 C8.1875 4.4375 8.1875 4.4375 8 7 C6 9 6 9 2.875 9.125 C1.451875 9.063125 1.451875 9.063125 0 9 C0 6.03 0 3.06 0 0 Z " fill="#365886" transform="translate(503,305)"/>
<path d="M0 0 C1.32 0 2.64 0 4 0 C4.33 1.98 4.66 3.96 5 6 C4.01 6 3.02 6 2 6 C2 11.61 2 17.22 2 23 C1.34 23 0.68 23 0 23 C0 15.41 0 7.82 0 0 Z " fill="#F9F9FB" transform="translate(869,303)"/>
<path d="M0 0 C1.98 0 3.96 0 6 0 C5.01 0.66 4.02 1.32 3 2 C2.42006301 4.19454681 2.42006301 4.19454681 2.3125 6.625 C2.24675781 7.44226563 2.18101562 8.25953125 2.11328125 9.1015625 C2.05720703 10.04128906 2.05720703 10.04128906 2 11 C3.98 11 5.96 11 8 11 C7.67 11.66 7.34 12.32 7 13 C5.35 13 3.7 13 2 13 C2 16.3 2 19.6 2 23 C1.34 23 0.68 23 0 23 C0 15.41 0 7.82 0 0 Z " fill="#FDFDFE" transform="translate(501,303)"/>
<path d="M0 0 C2.33294775 -0.04241723 4.66702567 -0.04092937 7 0 C8 1 8 1 8.1875 3.4375 C8 6 8 6 6 8 C2.875 8.125 2.875 8.125 0 8 C0 5.36 0 2.72 0 0 Z " fill="#2A4B7B" transform="translate(725,306)"/>
<path d="M0 0 C0.33 0 0.66 0 1 0 C1 4.29 1 8.58 1 13 C1.66 13 2.32 13 3 13 C3 11.35 3 9.7 3 8 C3.66 8 4.32 8 5 8 C5.99 9.485 5.99 9.485 7 11 C7.99 11 8.98 11 10 11 C10.33 11.99 10.66 12.98 11 14 C8.1528258 15.93607846 6.84582804 15.98954766 3.3125 15.75 C2.219375 15.5025 1.12625 15.255 0 15 C-1.47193312 12.05613377 -0.84936173 9.62609964 -0.5625 6.375 C-0.46066406 5.18648437 -0.35882812 3.99796875 -0.25390625 2.7734375 C-0.17011719 1.85820312 -0.08632813 0.94296875 0 0 Z " fill="#34517F" transform="translate(954,207)"/>
<path d="M0 0 C2.875 -0.125 2.875 -0.125 6 0 C6.66 0.66 7.32 1.32 8 2 C7.44444444 6.55555556 7.44444444 6.55555556 6 8 C4.00041636 8.04080783 1.99954746 8.04254356 0 8 C0 5.36 0 2.72 0 0 Z " fill="#3B628E" transform="translate(151,305)"/>
<path d="M0 0 C1.98 0 3.96 0 6 0 C5.01 0.66 4.02 1.32 3 2 C2.42006301 4.19454681 2.42006301 4.19454681 2.3125 6.625 C2.24675781 7.44226563 2.18101562 8.25953125 2.11328125 9.1015625 C2.05720703 10.04128906 2.05720703 10.04128906 2 11 C3.98 11 5.96 11 8 11 C7.67 11.66 7.34 12.32 7 13 C4.4375 13.625 4.4375 13.625 2 14 C1.67 16.97 1.34 19.94 1 23 C0.67 23 0.34 23 0 23 C0 15.41 0 7.82 0 0 Z " fill="#FAFBFC" transform="translate(387,303)"/>
<path d="M0 0 C1.98 0 3.96 0 6 0 C4.68 0.33 3.36 0.66 2 1 C2 4.3 2 7.6 2 11 C3.98 11 5.96 11 8 11 C7.67 11.66 7.34 12.32 7 13 C4.4375 13.625 4.4375 13.625 2 14 C1.67 16.97 1.34 19.94 1 23 C0.67 23 0.34 23 0 23 C0 15.41 0 7.82 0 0 Z " fill="#F8F9FA" transform="translate(723,303)"/>
<path d="M0 0 C2.64 0 5.28 0 8 0 C7.360625 0.309375 6.72125 0.61875 6.0625 0.9375 C4.06389179 1.8345163 4.06389179 1.8345163 3 3 C2.03926299 9.64213241 1.8901887 16.30151095 2 23 C1.34 23 0.68 23 0 23 C0 15.41 0 7.82 0 0 Z " fill="#F4F7F9" transform="translate(148,303)"/>
<path d="M0 0 C0.33 0.66 0.66 1.32 1 2 C4.63 2 8.26 2 12 2 C12 2.99 12 3.98 12 5 C7.05 5 2.1 5 -3 5 C-3 4.01 -3 3.02 -3 2 C-2.01 1.34 -1.02 0.68 0 0 Z " fill="#EBF0F4" transform="translate(111,322)"/>
<path d="M0 0 C1.99954746 -0.04254356 4.00041636 -0.04080783 6 0 C7 1 7 1 7.125 3.5 C7 6 7 6 6 7 C4.00041636 7.04080783 1.99954746 7.04254356 0 7 C0 4.69 0 2.38 0 0 Z " fill="#1A3B6F" transform="translate(851,306)"/>
<path d="M0 0 C1.99954746 -0.04254356 4.00041636 -0.04080783 6 0 C7 1 7 1 7.125 3.5 C7 6 7 6 6 7 C4.00041636 7.04080783 1.99954746 7.04254356 0 7 C0 4.69 0 2.38 0 0 Z " fill="#275081" transform="translate(230,306)"/>
<path d="M0 0 C0 0.33 0 0.66 0 1 C-1.093125 1.103125 -2.18625 1.20625 -3.3125 1.3125 C-6.81388619 1.76689628 -6.81388619 1.76689628 -8.9375 3.0625 C-10.67190096 6.22523116 -10.42737343 9.51795748 -10 13 C-9.13734032 15.40557853 -9.13734032 15.40557853 -8 17 C-8.99 17 -9.98 17 -11 17 C-13.34728069 13.33237392 -13.4430704 10.28301385 -13 6 C-9.20466765 -0.83159822 -7.52036299 -1.25339383 0 0 Z " fill="#CDD5E0" transform="translate(961,204)"/>
<path d="M0 0 C1.98 0 3.96 0 6 0 C6.625 2.375 6.625 2.375 7 5 C5 7 5 7 2.375 7.125 C1.59125 7.08375 0.8075 7.0425 0 7 C0 4.69 0 2.38 0 0 Z " fill="#23487A" transform="translate(524,306)"/>
<path d="M0 0 C0.66 0 1.32 0 2 0 C3.49821059 3.37097383 4 5.20442119 4 9 C1.69 9 -0.62 9 -3 9 C-2.01 6.03 -1.02 3.06 0 0 Z " fill="#2C4C7C" transform="translate(767,310)"/>
<path d="M0 0 C0 0.33 0 0.66 0 1 C-2.64 1.33 -5.28 1.66 -8 2 C-7.34 2.66 -6.68 3.32 -6 4 C-6.78375 4.45375 -7.5675 4.9075 -8.375 5.375 C-11.03698031 6.88428742 -11.03698031 6.88428742 -13 9 C-13.99 8.67 -14.98 8.34 -16 8 C-12.92519669 0.17322794 -7.56495612 -0.59332989 0 0 Z " fill="#DDE2EA" transform="translate(833,302)"/>
<path d="M0 0 C1.8871875 0.061875 1.8871875 0.061875 3.8125 0.125 C3.8125 1.115 3.8125 2.105 3.8125 3.125 C2.69875 3.228125 1.585 3.33125 0.4375 3.4375 C-0.75875 3.664375 -1.955 3.89125 -3.1875 4.125 C-4.1775 5.61 -4.1775 5.61 -5.1875 7.125 C-5.5175 6.465 -5.8475 5.805 -6.1875 5.125 C-6.8475 6.115 -7.5075 7.105 -8.1875 8.125 C-7.875 5.25 -7.875 5.25 -7.1875 2.125 C-4.09861478 0.06574319 -3.47814073 -0.1140374 0 0 Z " fill="#D7E0E8" transform="translate(277.1875,301.875)"/>
<path d="M0 0 C1.33804687 0.04060547 1.33804687 0.04060547 2.703125 0.08203125 C3.37859375 0.11683594 4.0540625 0.15164063 4.75 0.1875 C4.75 0.5175 4.75 0.8475 4.75 1.1875 C0.295 1.6825 0.295 1.6825 -4.25 2.1875 C-3.92 2.8475 -3.59 3.5075 -3.25 4.1875 C-5.5625 6.25 -5.5625 6.25 -8.25 8.1875 C-9.24 7.8575 -10.23 7.5275 -11.25 7.1875 C-8.97223512 1.68290154 -5.91789024 -0.23360093 0 0 Z " fill="#D9E1E9" transform="translate(417.25,301.8125)"/>
<path d="M0 0 C3.375 -0.125 3.375 -0.125 7 0 C9 2 9 2 9 6 C8.34 6 7.68 6 7 6 C6.67 5.01 6.34 4.02 6 3 C4.35 2.67 2.7 2.34 1 2 C1 5.63 1 9.26 1 13 C0.67 13 0.34 13 0 13 C0 8.71 0 4.42 0 0 Z " fill="#DDE2EA" transform="translate(955,207)"/>
<path d="M0 0 C3.63 0 7.26 0 11 0 C11 0.66 11 1.32 11 2 C8.36 2.33 5.72 2.66 3 3 C2.67 4.65 2.34 6.3 2 8 C1.67 8 1.34 8 1 8 C0.67 5.36 0.34 2.72 0 0 Z " fill="#F8F9FA" transform="translate(800,303)"/>
<path d="M0 0 C1.98 0 3.96 0 6 0 C6 0.33 6 0.66 6 1 C4.35 1 2.7 1 1 1 C1 3.31 1 5.62 1 8 C3.31 7.34 5.62 6.68 8 6 C7.67 7.65 7.34 9.3 7 11 C6.34 11 5.68 11 5 11 C5 10.34 5 9.68 5 9 C3.35 9 1.7 9 0 9 C0 6.03 0 3.06 0 0 Z " fill="#A9BACC" transform="translate(523,305)"/>
<path d="M0 0 C0.66 0.33 1.32 0.66 2 1 C2 1.99 2 2.98 2 4 C1.34 4 0.68 4 0 4 C-0.33 4.99 -0.66 5.98 -1 7 C-1.99 7 -2.98 7 -4 7 C-4.66 7.99 -5.32 8.98 -6 10 C-5.58578031 5.16743695 -3.53586014 3.17320782 0 0 Z " fill="#D6DFE8" transform="translate(173,303)"/>
<path d="M0 0 C0.99 0.99 1.98 1.98 3 3 C1.625 5 1.625 5 0 7 C-0.66 7 -1.32 7 -2 7 C-1.125 2.25 -1.125 2.25 0 0 Z " fill="#E4EAF0" transform="translate(115,311)"/>
<path d="M0 0 C1.45792884 -0.05399736 2.91642712 -0.09279177 4.375 -0.125 C5.18710937 -0.14820313 5.99921875 -0.17140625 6.8359375 -0.1953125 C9 0 9 0 11 2 C7.26840331 3.24386556 4.81984796 2.77811718 1 2 C0.67 1.34 0.34 0.68 0 0 Z " fill="#284778" transform="translate(954,205)"/>
<path d="M0 0 C0.66 0 1.32 0 2 0 C0.84826645 2.46800047 -0.04783565 4.04783565 -2 6 C-2.64767793 8.57061311 -2.64767793 8.57061311 -3 11 C-3.33 11 -3.66 11 -4 11 C-4.35858439 7.14521782 -4.2754818 5.42240542 -2.125 2.125 C-1.42375 1.42375 -0.7225 0.7225 0 0 Z " fill="#567399" transform="translate(612,306)"/>
<path d="M0 0 C2.31 0 4.62 0 7 0 C6.360625 0.309375 5.72125 0.61875 5.0625 0.9375 C3.06389179 1.8345163 3.06389179 1.8345163 2 3 C1.63239269 5.32817964 1.29758419 7.6618385 1 10 C0.67 10 0.34 10 0 10 C0 6.7 0 3.4 0 0 Z " fill="#FEFEFE" transform="translate(149,303)"/>
<path d="M0 0 C0 0.33 0 0.66 0 1 C-1.0725 1.12375 -2.145 1.2475 -3.25 1.375 C-6.37863615 1.89643936 -8.33480424 2.40088254 -11 4 C-8.36255031 -1.84006718 -6.04918208 -1.00819701 0 0 Z " fill="#B3BFD0" transform="translate(961,204)"/>
<path d="M0 0 C0 1.98 0 3.96 0 6 C-1.32 6 -2.64 6 -4 6 C-3.625 3.5625 -3.625 3.5625 -3 1 C-1 0 -1 0 0 0 Z " fill="#DDE3EA" transform="translate(762,321)"/>
<path d="M0 0 C0.33 0 0.66 0 1 0 C1 4.29 1 8.58 1 13 C1.66 13.33 2.32 13.66 3 14 C2.01 14.33 1.02 14.66 0 15 C-1.47193312 12.05613377 -0.84936173 9.62609964 -0.5625 6.375 C-0.46066406 5.18648437 -0.35882812 3.99796875 -0.25390625 2.7734375 C-0.17011719 1.85820312 -0.08632813 0.94296875 0 0 Z " fill="#46628C" transform="translate(954,207)"/>
<path d="M0 0 C2.475 0.495 2.475 0.495 5 1 C4.67 1.99 4.34 2.98 4 4 C2.68 4 1.36 4 0 4 C0 2.68 0 1.36 0 0 Z " fill="#1C3C70" transform="translate(957,209)"/>
</svg>
